<svg width="36" height="36" viewBox="0 0 36 36" fill="none" xmlns="http://www.w3.org/2000/svg">
<path fill-rule="evenodd" clip-rule="evenodd" d="M17.4383 15.6054H13.6173C13.547 15.6054 13.4788 15.5807 13.4249 15.5356L8.63411 11.5302C8.41903 11.3503 8.54618 11 8.82653 11H23.1865C26.3027 11.1797 28.0293 12.8638 28.3665 16.0523C28.3869 16.4985 28.3869 17.3093 28.3665 18.4848C28.2699 20.1739 27.493 21.4931 26.0347 22.4418C25.8676 22.5505 25.8428 22.7807 25.9939 22.9108C26.3861 23.2486 27.1565 23.9051 28.3049 24.8807C28.5177 25.0615 28.3906 25.4101 28.1113 25.4101H25.11C25.038 25.4101 24.9683 25.3842 24.9138 25.337L22.6422 23.3732C22.5877 23.3261 22.518 23.3002 22.446 23.3002H13.0378C12.8721 23.3002 12.7378 23.4345 12.7378 23.6002V25.1101C12.7378 25.2758 12.6035 25.4101 12.4378 25.4101H10.4782C10.3125 25.4101 10.1782 25.2758 10.1782 25.1101V21.1058C10.1782 20.9401 10.3125 20.8058 10.4782 20.8058H18.7576C19.0362 20.8058 19.1643 20.4593 18.9529 20.278L17.9929 19.4553C17.7814 19.274 17.9096 18.9275 18.1881 18.9275H21.1774C21.2486 18.9275 21.3175 18.9529 21.3718 18.999L23.3741 20.7029C23.4498 20.7673 23.5527 20.7905 23.6478 20.7614C25.0965 20.3177 25.8214 19.4336 25.8214 18.1091C25.8267 17.5934 25.8267 16.9687 25.8214 16.2348C25.6043 14.6021 24.7624 13.6948 23.2938 13.5133C23.2792 13.5115 23.2649 13.5109 23.2502 13.511C22.9758 13.514 20.4737 13.5141 15.7434 13.5112C15.4622 13.511 15.3336 13.863 15.5502 14.0423L17.4385 15.605C17.4386 15.6052 17.4385 15.6054 17.4383 15.6054V15.6054Z" fill="#FDF4C9"/>
<path d="M31.7104 28.0511C33.9846 24.949 35.1395 21.1673 34.9865 17.3239C34.8336 13.4804 33.3817 9.80248 30.8681 6.8909C28.3545 3.97933 24.9278 2.00624 21.1479 1.29399C17.3679 0.581738 13.4582 1.17243 10.0573 2.96957C6.65648 4.76671 3.96563 7.66405 2.42438 11.1882C0.883131 14.7124 0.58259 18.6551 1.57186 22.3722C2.56113 26.0893 4.78173 29.361 7.87087 31.6529C10.96 33.9447 14.7351 35.1212 18.5793 34.9901" stroke="#FDF4C9" stroke-width="2"/>
</svg>
